<?xml version="1.0" ?><!DOCTYPE svg  PUBLIC '-//W3C//DTD SVG 1.1//EN'  'http://www.w3.org/Graphics/SVG/1.1/DTD/svg11.dtd'><svg enable-background="new 0 0 1024 1024" height="1024px" id="Layer_1" version="1.1" viewBox="0 0 1024 1024" width="1024px" xml:space="preserve" xmlns="http://www.w3.org/2000/svg" xmlns:xlink="http://www.w3.org/1999/xlink"><g><path clip-rule="evenodd" d="M186.828,734.721c8.135,22.783-2.97,48.36-25.182,55.53    c-12.773,4.121-27.021,5.532-40.519,5.145c-24.764-0.714-32.668,8.165-24.564,31.376c2.795,8.01,6.687,15.644,10.269,23.363    c7.095,15.287,7.571,30.475-0.168,45.697c-2.572,5.057-5.055,10.168-7.402,15.337c-9.756,21.488-5.894,30.47,17.115,36.3    c18.451,4.676,37.425,7.289,55.885,11.932c40.455,10.175,80.749,21,121.079,31.676c20.128,5.325,40.175,9.878,61.075,3.774    c27.01-7.889,41.849-27.507,36.217-54.78c-4.359-21.112-10.586-43.132-21.634-61.314c-26.929-44.322-56.976-86.766-86.174-129.69    c-5.666-8.329-12.819-15.753-19.905-22.987c-23.511-24.004-32.83-26.298-64.022-16.059c-7.589-15.327-5.198-31.395-2.56-47.076    c1.384-8.231,4.291-16.796,8.718-23.821c18.812-29.824,29.767-62.909,41.471-95.738c13.545-37.999,30.87-73.47,57.108-105.131    c21.607-26.074,38.626-55.982,57.303-84.44c6.678-10.173,6.803-21.535,6.23-33.787c-2.976-63.622-6.561-127.301-6.497-190.957    c0.081-78.542,65.777-139.631,156.443-127.536c99.935,13.331,159.606,87.543,156.629,188.746    c-2.679,91.191,27.38,170.682,89.727,239.686c62.132,68.767,91.194,153.119,96.435,245.38c0.649,11.46-1.686,23.648-5.362,34.583    c-2.265,6.744-9.651,11.792-14.808,17.536c-6.984,7.781-14.497,15.142-20.959,23.328c-12.077,15.294-25.419,28.277-45.424,32.573    c-30.163,6.475-50.177-2.901-63.81-30.468c-1.797-3.636-3.358-7.432-5.555-10.812c-5.027-7.741-10.067-18.974-20.434-15.568    c-6.727,2.206-14.165,11.872-15.412,19.197c-2.738,16.079-5.699,33.882-1.532,49.047c11.975,43.604,9.224,86.688,3.062,130.371    c-3.513,24.898-0.414,49.037,23.13,63.504c24.495,15.044,48.407,7.348,70.818-6.976c3.742-2.394,7.25-5.249,10.536-8.252    c30.201-27.583,65.316-46.088,104.185-58.488c14.915-4.759,29.613-11.405,42.97-19.554c19.548-11.932,18.82-25.867-0.854-38.036    c-7.187-4.445-14.944-8.5-22.984-10.933c-23.398-7.067-34.812-23.963-39.767-46.375c-3.627-16.398-4.646-32.782,4.812-51.731    c1.689,10.577,2.771,17.974,4.062,25.334c5.242,29.945,20.805,52.067,48.321,66.04c8.869,4.5,17.161,10.973,24.191,18.055    c10.372,10.447,10.407,22.541,0.899,33.911c-4.886,5.837-10.683,11.312-17.052,15.427c-11.894,7.685-23.962,15.532-36.92,21.056    c-45.461,19.375-84.188,48.354-120.741,80.964c-19.707,17.582-44.202,15.855-68.188,13.395    c-21.502-2.203-38.363-12.167-48.841-31.787c-6.008-11.251-15.755-18.053-28.35-18.262c-42.991-0.722-85.995-0.785-128.993-0.914    c-8.92-0.026-17.842,0.962-26.769,1.1c-25.052,0.391-47.926,7.437-68.499,21.808c-5.987,4.186-12.068,8.24-17.954,12.562    c-19.389,14.233-40.63,17.873-63.421,10.497c-25.827-8.353-51.076-18.795-77.286-25.591    c-38.792-10.057-78.257-17.493-117.348-26.427c-43.557-9.959-51.638-24.855-33.733-65.298c8.605-19.435,8.812-38.251,3.55-58.078    c-2.593-9.773-5.126-19.704-6.164-29.72c-1.788-17.258,4.194-24.958,21.341-27.812c12.367-2.059,25.069-2.132,37.423-4.255    C165.996,776.175,182.158,759.821,186.828,734.721z M698.246,454.672c9.032,15.582,18.872,30.76,26.936,46.829    c20.251,40.355,34.457,82.42,30.25,128.537c-0.871,9.573-2.975,19.332-6.354,28.313c-5.088,13.528-18.494,19.761-33.921,17.5    c-13.708-2.007-15.566-12.743-16.583-23.462c-1.035-10.887-1.435-21.864-1.522-32.809c-0.314-39.017-7.915-76.689-22.456-112.7    c-5.214-12.915-14.199-24.3-21.373-36.438c-2.792-4.72-6.521-9.291-7.806-14.435c-8.82-35.31-21.052-68.866-43.649-98.164    c-11.154-14.454-14.638-31.432-9.843-49.572c1.656-6.269,3.405-12.527,4.695-18.875c3.127-15.406-1.444-22.62-15.969-28.01    c-15.509-5.752-30.424-13.273-46.179-18.138c-12.963-4.001-15.764-12.624-15.217-23.948c0.31-6.432,0.895-13.054,2.767-19.159    c3.27-10.672,9.56-18.74,21.976-19.737c12.983-1.044,22.973,4.218,28.695,16.137c5.661,11.8,6.941,23.856,1.772,36.459    c-4.638,11.314-0.159,17.13,11.52,13.901c4.966-1.373,11.677-7.397,12.217-11.947c2.661-22.318,1.795-44.577-9.871-64.926    c-11.181-19.503-31.449-27.798-52.973-21.69c-26.941,7.646-39.878,28.604-37.216,60.306c0.553,6.585,1.117,13.171,1.539,18.14    c-15.463-1.116-29.71-2.144-44.146-3.184c-0.73-8.563-0.741-16.346-2.199-23.846c-1.843-9.481-3.939-19.118-7.605-27.993    c-4.694-11.357-12.704-20.153-26.378-20.08c-13.304,0.074-20.082,9.253-25.192,19.894c-11.385,23.712-9.122,47.304,1.739,70.415    c1.69,3.598,6.099,8.623,8.82,8.369c3.715-0.347,7.016-5.125,11.028-8.443c-17.322-9.889-25.172-30.912-16.872-46.754    c3.016-5.758,10.86-10.391,17.474-12.498c8.076-2.575,15.881,2.05,18.515,10.112c3.214,9.837,4.66,20.323,6.051,30.641    c0.337,2.494-1.911,6.161-4.06,8.031c-12.73,11.068-25.827,21.713-38.686,32.635c-2.754,2.339-5.533,4.917-7.455,7.921    c-5.453,8.523-6.483,16.016,3.903,22.612c6.351,4.035,11.703,10.012,16.616,15.86c7.582,9.018,17.047,14.244,28.521,13.972    c46.214-1.09,91.113-6.879,128.25-38.61c1.953-1.668,7.641-1.83,9.262-0.271c1.896,1.823,2.584,6.983,1.334,9.451    c-1.418,2.797-5.315,4.806-8.555,6.139c-22.846,9.401-45.863,18.383-68.699,27.808c-22.67,9.355-45.875,13.199-70.216,8.43    c-2.864-0.562-5.932-0.076-10.576-0.076c10.396,14.605,21.893,24.62,38.819,23.571c12.759-0.79,26.125-2.244,37.846-6.879    c17.618-6.967,33.947-17.144,51.008-25.588c5.737-2.837,11.903-5.131,18.133-6.474c2.185-0.474,5.975,2.106,7.427,4.334    c0.804,1.237-1.1,5.309-2.865,6.903c-2.953,2.667-6.796,4.339-10.227,6.488c-21.264,13.325-42.521,26.658-63.771,40.002    c-8.235,5.17-16.098,11.071-24.745,15.408c-16.571,8.316-28.156,6.68-40.559-7.016c-10.026-11.072-18.225-23.792-27.376-35.669    c-2.98-3.87-6.41-7.393-9.635-11.074c-1.543,26.454-14.954,46.662-26.272,67.665c-12.261,22.755-21.042,45.964-8.633,69.951    c-4.075,4.752-7.722,8.13-10.332,12.18c-29.353,45.525-52.72,93.14-52.266,149.186c0.109,13.75-0.516,27.55-1.751,41.24    c-0.342,3.793-3.706,9.89-6.374,10.287c-3.868,0.573-10.627-1.946-12.202-5.111c-6.939-13.938-14.946-28.106-17.81-43.101    c-3.031-15.865-0.681-32.759-0.681-50.958c-2.558,5.441-5.907,9.771-6.539,14.466c-1.612,11.975-3.841,24.322-2.489,36.14    c2.343,20.486,5.578,41.892,21.418,56.922c21.76,20.642,44.75,40.021,67.689,59.375c20.161,17.01,41.426,32.724,61.388,49.954    c22.306,19.257,15.029,51.589-13.006,60.711c-2.144,0.697-4.25,1.513-8.117,2.9c20.918,28.527,40.528,56.508,38.477,93.371    c23.886-27.406,2.287-47.712-10.241-69.677c6.972-6.97,12.504-8.75,21.861-1.923c10.471,7.639,23.112,15.599,35.46,16.822    c62.957,6.229,123.157,2.18,163.56-57.379c2.57-3.788,8.177-5.519,12.37-8.205c1.981,4.603,5.929,9.354,5.596,13.78    c-1.266,16.837-3.306,33.673-6.265,50.292c-1.978,11.097-6.572,21.71-8.924,32.766c-1.849,8.696,1.109,15.219,12.607,15.204    c1.387-6.761,2.603-13.474,4.154-20.108c10.602-45.342,16.959-90.622,6.691-137.28c-3.4-15.454-2.151-32.381-0.526-48.377    c2.256-22.174,12.785-32.192,33.649-37.142c2.765-0.654,6.489-3.506,7.108-6.002c4.621-18.597,18.218-26.026,35.236-28.913    c19.98-3.386,39.191-0.066,59.491,10.485c-2.108-3.7-2.525-5.424-3.612-6.181c-8.573-5.968-17.275-11.753-25.307-17.164    C776.523,585.58,758.423,514.082,698.246,454.672z M427.12,221.259c1.83-0.584,3.657-1.169,5.486-1.755    c-2.37-7.733-4.515-15.555-7.387-23.097c-0.375-0.983-4.506-0.533-6.002-0.668C422.211,205.409,424.666,213.334,427.12,221.259z     M565.116,212.853c5.3-12.117-1.433-21.592-14.086-20.792C555.663,198.899,560.315,205.768,565.116,212.853z" fill-rule="evenodd"/></g></svg>