<?xml version="1.0" encoding="UTF-8" standalone="no"?>
<svg width="270px" height="78px" viewBox="0 0 270 78" version="1.1" xmlns="http://www.w3.org/2000/svg" xmlns:xlink="http://www.w3.org/1999/xlink">
    <!-- Generator: Sketch 42 (36781) - http://www.bohemiancoding.com/sketch -->
    <title>peerdrop-logo</title>
    <desc>Created with Sketch.</desc>
    <defs></defs>
    <g id="Page-1" stroke="none" stroke-width="1" fill="none" fill-rule="evenodd">
        <g id="peerdrop-logo" fill-rule="nonzero" fill="#000000">
            <g id="Group">
                <g id="person">
                    <path d="M90.0265116,77.7301622 L90.0265116,59.7775135 C90.0265116,46.4858919 79.0176279,43.1571892 65.9982791,43.1571892 L24.2906512,43.1571892 C10.9411628,43.1571892 0.262418605,46.4858919 0.262418605,59.7775135 L0.262418605,77.7301622 L90.0265116,77.7301622 Z" id="Shape"></path>
                    <path d="M44.9793953,37.5074595 C55.3258837,37.5074595 63.3317674,29.2015135 63.3317674,19.2238378 C63.3317674,8.9172973 54.9936279,0.942324324 44.9793953,0.942324324 C34.6350233,0.942324324 26.6270233,9.25248649 26.6270233,19.2238378 C26.6270233,29.2015135 34.6350233,37.5074595 44.9793953,37.5074595" id="Shape"></path>
                </g>
            </g>
            <g id="Group-Copy" transform="translate(179.000000, 0.000000)">
                <g id="person">
                    <path d="M90.0265116,77.7301622 L90.0265116,59.7775135 C90.0265116,46.4858919 79.0176279,43.1571892 65.9982791,43.1571892 L24.2906512,43.1571892 C10.9411628,43.1571892 0.262418605,46.4858919 0.262418605,59.7775135 L0.262418605,77.7301622 L90.0265116,77.7301622 Z" id="Shape"></path>
                    <path d="M44.9793953,37.5074595 C55.3258837,37.5074595 63.3317674,29.2015135 63.3317674,19.2238378 C63.3317674,8.9172973 54.9936279,0.942324324 44.9793953,0.942324324 C34.6350233,0.942324324 26.6270233,9.25248649 26.6270233,19.2238378 C26.6270233,29.2015135 34.6350233,37.5074595 44.9793953,37.5074595" id="Shape"></path>
                </g>
            </g>
            <g id="files" transform="translate(104.000000, 8.000000)">
                <path d="M61.73475,15.3260625 L50.0449687,1.687875 C49.305375,0.82490625 48.2251875,0.32746875 47.08725,0.32746875 L19.810875,0.32746875 C16.5880312,0.32746875 13.9656563,2.9491875 13.9656563,6.17203125 L6.17334375,6.17203125 C2.9505,6.17203125 0.328125,8.79309375 0.328125,12.0165937 L0.328125,56.8273125 C0.328125,60.0501562 2.9505,62.671875 6.17334375,62.671875 L45.1381875,62.671875 C47.2906875,62.671875 49.035,60.9249375 49.035,58.7750625 L49.035,56.8266563 L58.7770312,56.8266563 C60.928875,56.8266563 62.6731875,55.080375 62.6731875,52.9298437 L62.6731875,50.980125 L62.6731875,17.8618125 C62.671875,16.93125 62.3391562,16.0321875 61.73475,15.3260625 Z M45.1375313,52.9311562 L45.1375313,54.8795625 L45.1375313,56.8279687 L45.1375313,58.776375 L6.17334375,58.776375 C5.09709375,58.776375 4.2249375,57.904875 4.2249375,56.8279687 L4.2249375,12.01725 C4.2249375,10.9403437 5.09709375,10.0681875 6.17334375,10.0681875 L13.9656562,10.0681875 L15.9147187,10.0681875 L17.8637812,10.0681875 L33.4484062,10.0681875 L33.4484062,17.5422187 C33.4484062,20.3844375 35.1631875,23.7070312 39.293625,23.7070312 L45.1381875,23.7070312 L45.1381875,52.9311562 L45.1375313,52.9311562 Z M58.7757187,50.9820937 L58.7757187,52.9318125 L49.0343437,52.9318125 L49.0343437,23.706375 C49.0343437,22.7751562 48.7022812,21.8760937 48.0972187,21.170625 L36.4067812,7.5324375 C35.6685,6.670125 34.5856875,6.1726875 33.4484062,6.1726875 L17.8637812,6.1726875 C17.8637812,5.09446875 18.734625,4.22428125 19.810875,4.22428125 L47.08725,4.22428125 L47.08725,11.697 C47.08725,14.5392187 48.8007188,17.8624687 52.9311563,17.8624687 L58.776375,17.8624687 L58.776375,50.9820937 L58.7757187,50.9820937 Z" id="Shape"></path>
                <path d="M30.9953438,43.2449063 L16.2500625,43.2449063 L21.0774375,38.4175313 C21.8465625,37.6490625 21.8465625,36.4028438 21.0774375,35.6337188 C20.3089688,34.86525 19.0620938,34.8645938 18.2929688,35.6337188 L10.1069062,43.8197812 C10.0156875,43.911 9.933,44.0114063 9.8608125,44.1190312 C9.84178125,44.14725 9.82996875,44.1794062 9.81225,44.2082812 C9.76434375,44.289 9.7164375,44.3690625 9.6796875,44.4563438 C9.66196875,44.4996563 9.65278125,44.54625 9.63834375,44.5902187 C9.61209375,44.667 9.58321875,44.743125 9.56746875,44.8238437 C9.54121875,44.9511562 9.52809375,45.08175 9.52809375,45.2136562 C9.52809375,45.3455625 9.541875,45.4755 9.56746875,45.6034687 C9.58321875,45.682875 9.61209375,45.7576875 9.63703125,45.8338125 C9.652125,45.8790937 9.6613125,45.9276562 9.6796875,45.971625 C9.7138125,46.0536562 9.75975,46.129125 9.804375,46.2045937 C9.82471875,46.239375 9.83915625,46.276125 9.8608125,46.3089375 C9.93234375,46.41525 10.0130625,46.5143437 10.103625,46.6049062 L10.103625,46.6055625 C10.103625,46.6055625 10.103625,46.6055625 10.103625,46.6062187 L18.2923125,54.7949062 C18.676875,55.1794687 19.180875,55.37175 19.684875,55.37175 C20.188875,55.37175 20.692875,55.1794687 21.0767813,54.7949062 C21.8459063,54.0264375 21.8459063,52.7802187 21.0767813,52.0110937 L16.24875,47.1830625 L30.9940313,47.1830625 C32.0814375,47.1830625 32.9627813,46.3017187 32.9627813,45.2143125 C32.9627813,44.1269062 32.08275,43.2449063 30.9953438,43.2449063 Z" id="Shape"></path>
                <path d="M35.4210938,30.4125937 C35.4014063,30.3436875 35.385,30.2728125 35.3567813,30.205875 C35.3305313,30.1422188 35.2937813,30.085125 35.261625,30.0254063 C35.2334063,29.9729063 35.2097812,29.9184375 35.1756563,29.8679063 C35.104125,29.7602813 35.0220937,29.659875 34.930875,29.568 L34.930875,29.568 L34.930875,29.5673438 L26.7421875,21.378 C25.9737188,20.6095312 24.7268438,20.608875 23.9577187,21.378 C23.1885938,22.1464688 23.1885938,23.3926875 23.9577187,24.1618125 L28.78575,28.9898437 L14.0404688,28.9898437 C12.9530625,28.9898437 12.0717188,29.8711875 12.0717188,30.9585937 C12.0717188,32.046 12.9530625,32.9273437 14.0404688,32.9273437 L28.78575,32.9273437 L23.9577188,37.755375 C23.18925,38.5245 23.18925,39.7707187 23.9577188,40.5391875 C24.341625,40.92375 24.8462813,41.1160312 25.349625,41.1160312 C25.8529688,41.1160312 26.357625,40.92375 26.7421875,40.5391875 L34.930875,32.3505 L34.930875,32.3498437 L34.930875,32.3498437 C35.0220938,32.2579687 35.1034688,32.1575625 35.1756563,32.0499375 C35.209125,32.0000625 35.23275,31.9455937 35.2609688,31.8930937 C35.2937813,31.8327187 35.329875,31.7749687 35.3567813,31.7119687 C35.3843438,31.644375 35.40075,31.5741562 35.4210938,31.50525 C35.4368438,31.4514375 35.4578438,31.40025 35.4683438,31.3444687 C35.5195313,31.0898438 35.5195313,30.8273438 35.4683438,30.5727187 C35.4571875,30.5175937 35.4368438,30.4664062 35.4210938,30.4125937 Z" id="Shape"></path>
            </g>
        </g>
    </g>
</svg>